<svg width="24" height="35" viewBox="0 0 24 35" fill="none" xmlns="http://www.w3.org/2000/svg">
<path d="M23.1529 11.5765C23.1529 16.2466 20.3859 20.2729 16.4028 22.0998C18.0847 20.7144 19.1558 18.6127 19.1558 16.2607C19.1558 12.1289 15.8494 8.76894 11.7355 8.68518C11.6809 8.68141 11.6311 8.68141 11.5765 8.68141C11.5219 8.68141 11.472 8.68141 11.4174 8.68518C9.89082 8.768 8.68235 10.0311 8.68235 11.5755V26.0461C8.68235 30.8395 4.79341 34.7285 0 34.7285V11.5765C0 5.184 5.184 0 11.5765 0C17.9689 0 23.1529 5.184 23.1529 11.5765Z" fill="black"/>
<path d="M13.6227 13.6229C14.7529 12.4927 14.7529 10.6603 13.6227 9.53008C12.4925 8.39986 10.66 8.39986 9.52983 9.53008C8.39962 10.6603 8.39962 12.4927 9.52983 13.6229C10.66 14.7532 12.4925 14.7532 13.6227 13.6229Z" fill="black"/>
</svg>
